<?xml version="1.0" ?><svg height="60px" version="1.1" viewBox="0 0 60 60" width="60px" xmlns="http://www.w3.org/2000/svg" xmlns:sketch="http://www.bohemiancoding.com/sketch/ns" xmlns:xlink="http://www.w3.org/1999/xlink"><title/><desc/><defs/><g fill="none" fill-rule="evenodd" id="soical" stroke="none" stroke-width="1"><g id="social" transform="translate(-173.000000, -338.000000)"><g id="slices" transform="translate(173.000000, 138.000000)"/><g fill="#000000" id="hexagon-black" transform="translate(173.000000, 138.000000)"><polygon id="Polygon-20" points="30 200 55.9807621 215 55.9807621 245 30 260 4.01923789 245 4.01923789 215 "/></g><g fill="#FFFFFF" id="icon" transform="translate(182.000000, 150.000000)"><path d="M32.8284217,215.618589 C30.5303571,214.868084 29.1439631,214.415117 29.1439631,212.556617 C29.1439631,211.048946 30.2638236,209.956938 31.8063601,209.956938 C32.9891813,209.956938 33.8697912,210.466305 34.6597378,211.615155 C34.7340314,211.72218 34.8725449,211.759927 34.9871333,211.697755 L37.3066045,210.468081 C37.3691454,210.436107 37.4161561,210.3766 37.4358837,210.306434 C37.4564509,210.236268 37.4484759,210.161662 37.4140574,210.09727 C36.1707939,207.80401 34.3793529,206.68891 31.9356393,206.68891 C28.217182,206.68891 25.8141829,209.026134 25.8141829,212.641882 C25.8141829,216.339785 28.1391107,217.836798 32.4271523,219.302726 C34.9111607,220.163364 36.0104541,220.619441 36.0104541,222.456624 C36.0104541,224.520735 34.2181736,226.005314 31.7715218,225.918273 C29.2090224,225.828568 28.4320877,224.417263 27.4553578,222.105796 C25.8041092,218.191179 23.9241035,213.620203 23.9060548,213.575794 C22.019753,209.053668 18.2794693,206.461538 13.6438848,206.461538 C7.52074948,206.461538 2.53846154,211.637804 2.53846154,218.001554 C2.53846154,224.361752 7.52074948,229.538462 13.6438848,229.538462 C16.9841584,229.538462 20.1145631,228.000592 22.2325601,225.316981 C22.2942616,225.239266 22.3081129,225.134018 22.2699168,225.04076 L20.8705109,221.684359 C20.8306358,221.591101 20.7412316,221.528484 20.643013,221.524044 C20.5418562,221.519603 20.4507731,221.577778 20.4050216,221.667483 C19.0832672,224.291587 16.4930651,225.920938 13.6438848,225.920938 C9.44146975,225.920938 6.02354467,222.369583 6.02354467,218.001554 C6.02354467,213.633526 10.5898936,210.084615 14.7923087,210.084615 C17.8513579,210.084615 19.5055235,211.967759 20.6186682,214.78282 L24.0815052,222.987751 L24.4810956,223.909229 C26.0471374,227.697281 28.3460415,229.395466 31.9490709,229.409233 C36.2320757,229.409233 39.4615385,226.460058 39.4615385,222.551658 C39.4615385,218.624163 37.3725033,217.152018 33.766116,215.929894 C33.4420784,215.820204 33.1293737,215.717621 32.8284217,215.618589 Z" id="last.fm"/></g></g></g></svg>